<svg  class="dots" width="146" height="168" viewBox="0 0 146 168" fill="none" xmlns="http://www.w3.org/2000/svg">
                    <g opacity="0.4">
                    <circle cx="-1.34545" cy="165.349" r="2.09302" transform="rotate(-90 -1.34545 165.349)" fill="white"/>
                    <circle cx="16.7941" cy="165.349" r="2.09302" transform="rotate(-90 16.7941 165.349)" fill="white"/>
                    <circle cx="34.9336" cy="165.349" r="2.09302" transform="rotate(-90 34.9336 165.349)" fill="white"/>
                    <circle cx="53.0732" cy="165.349" r="2.09302" transform="rotate(-90 53.0732 165.349)" fill="white"/>
                    <circle cx="71.2128" cy="165.349" r="2.09302" transform="rotate(-90 71.2128 165.349)" fill="white"/>
                    <circle cx="89.3523" cy="165.349" r="2.09302" transform="rotate(-90 89.3523 165.349)" fill="white"/>
                    <circle cx="107.492" cy="165.349" r="2.09302" transform="rotate(-90 107.492 165.349)" fill="white"/>
                    <circle cx="125.631" cy="165.349" r="2.09302" transform="rotate(-90 125.631 165.349)" fill="white"/>
                    <circle cx="143.771" cy="165.349" r="2.09302" transform="rotate(-90 143.771 165.349)" fill="white"/>
                    <circle cx="-1.34545" cy="147.209" r="2.09302" transform="rotate(-90 -1.34545 147.209)" fill="white"/>
                    <circle cx="16.7941" cy="147.209" r="2.09302" transform="rotate(-90 16.7941 147.209)" fill="white"/>
                    <circle cx="34.9336" cy="147.209" r="2.09302" transform="rotate(-90 34.9336 147.209)" fill="white"/>
                    <circle cx="53.0732" cy="147.209" r="2.09302" transform="rotate(-90 53.0732 147.209)" fill="white"/>
                    <circle cx="71.2128" cy="147.209" r="2.09302" transform="rotate(-90 71.2128 147.209)" fill="white"/>
                    <circle cx="89.3523" cy="147.209" r="2.09302" transform="rotate(-90 89.3523 147.209)" fill="white"/>
                    <circle cx="107.492" cy="147.209" r="2.09302" transform="rotate(-90 107.492 147.209)" fill="white"/>
                    <circle cx="125.631" cy="147.209" r="2.09302" transform="rotate(-90 125.631 147.209)" fill="white"/>
                    <circle cx="143.771" cy="147.209" r="2.09302" transform="rotate(-90 143.771 147.209)" fill="white"/>
                    <circle cx="-1.34545" cy="129.07" r="2.09302" transform="rotate(-90 -1.34545 129.07)" fill="white"/>
                    <circle cx="16.7941" cy="129.07" r="2.09302" transform="rotate(-90 16.7941 129.07)" fill="white"/>
                    <circle cx="34.9336" cy="129.07" r="2.09302" transform="rotate(-90 34.9336 129.07)" fill="white"/>
                    <circle cx="53.0732" cy="129.07" r="2.09302" transform="rotate(-90 53.0732 129.07)" fill="white"/>
                    <circle cx="71.2128" cy="129.07" r="2.09302" transform="rotate(-90 71.2128 129.07)" fill="white"/>
                    <circle cx="89.3523" cy="129.07" r="2.09302" transform="rotate(-90 89.3523 129.07)" fill="white"/>
                    <circle cx="107.492" cy="129.07" r="2.09302" transform="rotate(-90 107.492 129.07)" fill="white"/>
                    <circle cx="125.631" cy="129.07" r="2.09302" transform="rotate(-90 125.631 129.07)" fill="white"/>
                    <circle cx="143.771" cy="129.07" r="2.09302" transform="rotate(-90 143.771 129.07)" fill="white"/>
                    <circle cx="-1.34545" cy="110.93" r="2.09302" transform="rotate(-90 -1.34545 110.93)" fill="white"/>
                    <circle cx="16.7941" cy="110.93" r="2.09302" transform="rotate(-90 16.7941 110.93)" fill="white"/>
                    <circle cx="34.9336" cy="110.93" r="2.09302" transform="rotate(-90 34.9336 110.93)" fill="white"/>
                    <circle cx="53.0732" cy="110.93" r="2.09302" transform="rotate(-90 53.0732 110.93)" fill="white"/>
                    <circle cx="71.2128" cy="110.93" r="2.09302" transform="rotate(-90 71.2128 110.93)" fill="white"/>
                    <circle cx="89.3523" cy="110.93" r="2.09302" transform="rotate(-90 89.3523 110.93)" fill="white"/>
                    <circle cx="107.492" cy="110.93" r="2.09302" transform="rotate(-90 107.492 110.93)" fill="white"/>
                    <circle cx="125.631" cy="110.93" r="2.09302" transform="rotate(-90 125.631 110.93)" fill="white"/>
                    <circle cx="143.771" cy="110.93" r="2.09302" transform="rotate(-90 143.771 110.93)" fill="white"/>
                    <circle cx="-1.34545" cy="92.7908" r="2.09302" transform="rotate(-90 -1.34545 92.7908)" fill="white"/>
                    <circle cx="16.7941" cy="92.7908" r="2.09302" transform="rotate(-90 16.7941 92.7908)" fill="white"/>
                    <circle cx="34.9336" cy="92.7908" r="2.09302" transform="rotate(-90 34.9336 92.7908)" fill="white"/>
                    <circle cx="53.0732" cy="92.7908" r="2.09302" transform="rotate(-90 53.0732 92.7908)" fill="white"/>
                    <circle cx="71.2128" cy="92.7908" r="2.09302" transform="rotate(-90 71.2128 92.7908)" fill="white"/>
                    <circle cx="89.3523" cy="92.7908" r="2.09302" transform="rotate(-90 89.3523 92.7908)" fill="white"/>
                    <circle cx="107.492" cy="92.7908" r="2.09302" transform="rotate(-90 107.492 92.7908)" fill="white"/>
                    <circle cx="125.631" cy="92.7908" r="2.09302" transform="rotate(-90 125.631 92.7908)" fill="white"/>
                    <circle cx="143.771" cy="92.7908" r="2.09302" transform="rotate(-90 143.771 92.7908)" fill="white"/>
                    <circle cx="-1.34545" cy="74.6511" r="2.09302" transform="rotate(-90 -1.34545 74.6511)" fill="white"/>
                    <circle cx="16.7941" cy="74.6511" r="2.09302" transform="rotate(-90 16.7941 74.6511)" fill="white"/>
                    <circle cx="34.9336" cy="74.6511" r="2.09302" transform="rotate(-90 34.9336 74.6511)" fill="white"/>
                    <circle cx="53.0732" cy="74.6511" r="2.09302" transform="rotate(-90 53.0732 74.6511)" fill="white"/>
                    <circle cx="71.2128" cy="74.6511" r="2.09302" transform="rotate(-90 71.2128 74.6511)" fill="white"/>
                    <circle cx="89.3523" cy="74.6511" r="2.09302" transform="rotate(-90 89.3523 74.6511)" fill="white"/>
                    <circle cx="107.492" cy="74.6511" r="2.09302" transform="rotate(-90 107.492 74.6511)" fill="white"/>
                    <circle cx="125.631" cy="74.6511" r="2.09302" transform="rotate(-90 125.631 74.6511)" fill="white"/>
                    <circle cx="143.771" cy="74.6511" r="2.09302" transform="rotate(-90 143.771 74.6511)" fill="white"/>
                    <circle cx="-1.34545" cy="56.5117" r="2.09302" transform="rotate(-90 -1.34545 56.5117)" fill="white"/>
                    <circle cx="16.7941" cy="56.5117" r="2.09302" transform="rotate(-90 16.7941 56.5117)" fill="white"/>
                    <circle cx="34.9336" cy="56.5117" r="2.09302" transform="rotate(-90 34.9336 56.5117)" fill="white"/>
                    <circle cx="53.0732" cy="56.5117" r="2.09302" transform="rotate(-90 53.0732 56.5117)" fill="white"/>
                    <circle cx="71.2128" cy="56.5117" r="2.09302" transform="rotate(-90 71.2128 56.5117)" fill="white"/>
                    <circle cx="89.3523" cy="56.5117" r="2.09302" transform="rotate(-90 89.3523 56.5117)" fill="white"/>
                    <circle cx="107.492" cy="56.5117" r="2.09302" transform="rotate(-90 107.492 56.5117)" fill="white"/>
                    <circle cx="125.631" cy="56.5117" r="2.09302" transform="rotate(-90 125.631 56.5117)" fill="white"/>
                    <circle cx="143.771" cy="56.5117" r="2.09302" transform="rotate(-90 143.771 56.5117)" fill="white"/>
                    <circle cx="-1.34545" cy="38.3723" r="2.09302" transform="rotate(-90 -1.34545 38.3723)" fill="white"/>
                    <circle cx="16.7941" cy="38.3723" r="2.09302" transform="rotate(-90 16.7941 38.3723)" fill="white"/>
                    <circle cx="34.9336" cy="38.3723" r="2.09302" transform="rotate(-90 34.9336 38.3723)" fill="white"/>
                    <circle cx="53.0732" cy="38.3723" r="2.09302" transform="rotate(-90 53.0732 38.3723)" fill="white"/>
                    <circle cx="71.2128" cy="38.3723" r="2.09302" transform="rotate(-90 71.2128 38.3723)" fill="white"/>
                    <circle cx="89.3523" cy="38.3723" r="2.09302" transform="rotate(-90 89.3523 38.3723)" fill="white"/>
                    <circle cx="107.492" cy="38.3723" r="2.09302" transform="rotate(-90 107.492 38.3723)" fill="white"/>
                    <circle cx="125.631" cy="38.3723" r="2.09302" transform="rotate(-90 125.631 38.3723)" fill="white"/>
                    <circle cx="143.771" cy="38.3723" r="2.09302" transform="rotate(-90 143.771 38.3723)" fill="white"/>
                    <circle cx="-1.34545" cy="20.2324" r="2.09302" transform="rotate(-90 -1.34545 20.2324)" fill="white"/>
                    <circle cx="16.7941" cy="20.2324" r="2.09302" transform="rotate(-90 16.7941 20.2324)" fill="white"/>
                    <circle cx="34.9336" cy="20.2324" r="2.09302" transform="rotate(-90 34.9336 20.2324)" fill="white"/>
                    <circle cx="53.0732" cy="20.2324" r="2.09302" transform="rotate(-90 53.0732 20.2324)" fill="white"/>
                    <circle cx="71.2128" cy="20.2324" r="2.09302" transform="rotate(-90 71.2128 20.2324)" fill="white"/>
                    <circle cx="89.3523" cy="20.2324" r="2.09302" transform="rotate(-90 89.3523 20.2324)" fill="white"/>
                    <circle cx="107.492" cy="20.2324" r="2.09302" transform="rotate(-90 107.492 20.2324)" fill="white"/>
                    <circle cx="125.631" cy="20.2324" r="2.09302" transform="rotate(-90 125.631 20.2324)" fill="white"/>
                    <circle cx="143.771" cy="20.2324" r="2.09302" transform="rotate(-90 143.771 20.2324)" fill="white"/>
                    <circle cx="-1.34545" cy="2.09301" r="2.09302" transform="rotate(-90 -1.34545 2.09301)" fill="white"/>
                    <circle cx="16.7941" cy="2.09301" r="2.09302" transform="rotate(-90 16.7941 2.09301)" fill="white"/>
                    <circle cx="34.9336" cy="2.09301" r="2.09302" transform="rotate(-90 34.9336 2.09301)" fill="white"/>
                    <circle cx="53.0732" cy="2.09301" r="2.09302" transform="rotate(-90 53.0732 2.09301)" fill="white"/>
                    <circle cx="71.2128" cy="2.09301" r="2.09302" transform="rotate(-90 71.2128 2.09301)" fill="white"/>
                    <circle cx="89.3523" cy="2.09301" r="2.09302" transform="rotate(-90 89.3523 2.09301)" fill="white"/>
                    <circle cx="107.492" cy="2.09301" r="2.09302" transform="rotate(-90 107.492 2.09301)" fill="white"/>
                    <circle cx="125.631" cy="2.09301" r="2.09302" transform="rotate(-90 125.631 2.09301)" fill="white"/>
                    <circle cx="143.771" cy="2.09301" r="2.09302" transform="rotate(-90 143.771 2.09301)" fill="white"/>
                    </g>
                    </svg>